<svg width="143" height="141" viewBox="0 0 143 141" fill="none" xmlns="http://www.w3.org/2000/svg">
<path d="M87.1205 138.535C72.5783 141.892 57.3607 140.621 43.6488 134.904C29.9369 129.186 18.4345 119.316 10.7903 106.707C3.14609 94.0986 -0.247528 79.3992 1.09582 64.7157C2.43917 50.0322 8.45052 36.1185 18.2683 24.9686C28.0861 13.8188 41.2063 6.00529 55.7485 2.64797C70.2906 -0.709347 85.5082 0.561877 99.2201 6.27945C112.932 11.997 124.434 21.8674 132.079 34.476C139.723 47.0845 143.116 61.7839 141.773 76.4674L113.638 74.1171C114.444 65.307 112.407 56.4873 107.821 48.9222C103.234 41.3571 96.333 35.4348 88.1059 32.0043C79.8787 28.5737 70.7482 27.811 62.0229 29.8254C53.2976 31.8398 45.4254 36.5279 39.5348 43.2178C33.6441 49.9077 30.0373 58.256 29.2313 67.066C28.4253 75.8761 30.4614 84.6958 35.048 92.2609C39.6345 99.826 46.5359 105.748 54.7631 109.179C62.9902 112.609 72.1208 113.372 80.8461 111.358L87.1205 138.535Z" fill="#374557"/>
</svg>
