<svg width="18" height="17" viewBox="0 0 18 17" fill="none" xmlns="http://www.w3.org/2000/svg">
<rect x="0.5" y="0.5" width="17" height="16" rx="1.5" stroke="#374557"/>
<path d="M13.7521 6.49663L12.9417 7.30702C12.8591 7.38964 12.7255 7.38964 12.6429 7.30702L10.6916 5.35577C10.609 5.27315 10.609 5.13955 10.6916 5.05693L11.502 4.24654C11.8308 3.91782 12.3652 3.91782 12.6956 4.24654L13.7521 5.30303C14.0826 5.63175 14.0826 6.16615 13.7521 6.49663ZM9.99552 5.75305L5.37929 10.3692L5.00662 12.5051C4.95564 12.7934 5.20701 13.043 5.49531 12.9938L7.63115 12.6193L12.2474 8.00314C12.33 7.92052 12.33 7.78692 12.2474 7.7043L10.2961 5.75305C10.2117 5.67043 10.0781 5.67043 9.99552 5.75305ZM7.18113 9.97372C7.08445 9.87704 7.08445 9.72235 7.18113 9.62566L9.88829 6.91852C9.98497 6.82184 10.1397 6.82184 10.2363 6.91852C10.333 7.01521 10.333 7.1699 10.2363 7.26659L7.52919 9.97372C7.43251 10.0704 7.27781 10.0704 7.18113 9.97372ZM6.54653 11.4521H7.39032V12.0902L6.25648 12.2889L5.70977 11.7422L5.90841 10.6083H6.54653V11.4521Z" fill="#374557"/>
</svg>
