<svg width="14" height="7" viewBox="0 0 14 7" fill="none" xmlns="http://www.w3.org/2000/svg">
<path d="M13.5208 2.057L12.3267 2.59167C12.205 2.64619 12.0081 2.64619 11.8864 2.59167L9.01126 1.30429C8.88952 1.24978 8.88952 1.16163 9.01126 1.10712L10.2054 0.572453C10.6897 0.355569 11.4772 0.355569 11.9641 0.572453L13.5208 1.2695C14.0078 1.48638 14.0078 1.83896 13.5208 2.057ZM7.98554 1.56641L1.18363 4.61206L0.634503 6.02122C0.559387 6.21143 0.929788 6.37612 1.35458 6.34365L4.5017 6.09661L11.3036 3.05096C11.4253 2.99645 11.4253 2.9083 11.3036 2.85379L8.42846 1.56641C8.30413 1.5119 8.10728 1.5119 7.98554 1.56641ZM3.8386 4.3511C3.69614 4.28731 3.69614 4.18525 3.8386 4.12146L7.82754 2.33536C7.97 2.27157 8.19794 2.27157 8.3404 2.33536C8.48286 2.39915 8.48286 2.50121 8.3404 2.565L4.35146 4.3511C4.209 4.41489 3.98106 4.41489 3.8386 4.3511ZM2.90353 5.3265H4.14684V5.74751L2.47615 5.87856L1.67059 5.51786L1.96328 4.76979H2.90353V5.3265Z" fill="#374557"/>
</svg>
