<svg width="15" height="15" viewBox="0 0 15 15" fill="none" xmlns="http://www.w3.org/2000/svg">
<path d="M12.4136 5.40378V2.26608C12.4136 2.03393 12.3214 1.81163 12.1574 1.64729L10.9198 0.409989C10.7557 0.245927 10.5331 0.153778 10.301 0.153778H2.78857C2.30541 0.153778 1.91357 0.545614 1.91357 1.02878V5.40378C0.946973 5.40378 0.163574 6.18718 0.163574 7.15378V10.2163C0.163574 10.458 0.359355 10.6538 0.601074 10.6538H1.91357V13.2788C1.91357 13.7619 2.30541 14.1538 2.78857 14.1538H11.5386C12.0217 14.1538 12.4136 13.7619 12.4136 13.2788V10.6538H13.7261C13.9678 10.6538 14.1636 10.458 14.1636 10.2163V7.15378C14.1636 6.18718 13.3802 5.40378 12.4136 5.40378ZM10.6636 12.4038H3.66357V9.77878H10.6636V12.4038ZM10.6636 6.27878H3.66357V1.90378H8.91357V3.21628C8.91357 3.458 9.10936 3.65378 9.35107 3.65378H10.6636V6.27878ZM11.9761 8.24753C11.6138 8.24753 11.3198 7.95358 11.3198 7.59128C11.3198 7.2287 11.6138 6.93503 11.9761 6.93503C12.3384 6.93503 12.6323 7.2287 12.6323 7.59128C12.6323 7.95358 12.3384 8.24753 11.9761 8.24753Z" fill="white"/>
</svg>
